HIERARCHY
ROOT Hips
{
	OFFSET 0.000000 0.000000 0.000000
	CHANNELS 6 Xposition Yposition Zposition Zrotation Yrotation Xrotation 
	JOINT LHipJoint
	{
		OFFSET 0.000000 0.000000 0.000000
		CHANNELS 3 Zrotation Yrotation Xrotation
		JOINT LeftUpLeg
		{
			OFFSET 1.363060 -1.794630 0.839290
			CHANNELS 3 Zrotation Yrotation Xrotation
			JOINT LeftLeg
			{
				OFFSET 2.448110 -6.726130 0.000000
				CHANNELS 3 Zrotation Yrotation Xrotation
				JOINT LeftFoot
				{
					OFFSET 2.562200 -7.039590 0.000000
					CHANNELS 3 Zrotation Yrotation Xrotation
					JOINT LeftToeBase
					{
						OFFSET 0.157640 -0.433110 2.322550
						CHANNELS 3 Zrotation Yrotation Xrotation
						End Site
						{
							OFFSET 0.000000 0.000000 0.000000
						}
					}
				}
			}
		}
	}
	JOINT RHipJoint
	{
		OFFSET 0.000000 0.000000 0.000000
		CHANNELS 3 Zrotation Yrotation Xrotation
		JOINT RightUpLeg
		{
			OFFSET -1.305520 -1.794630 0.839290
			CHANNELS 3 Zrotation Yrotation Xrotation
			JOINT RightLeg
			{
				OFFSET -2.542530 -6.985550 0.000000
				CHANNELS 3 Zrotation Yrotation Xrotation
				JOINT RightFoot
				{
					OFFSET -2.568260 -7.056230 0.000000
					CHANNELS 3 Zrotation Yrotation Xrotation
					JOINT RightToeBase
					{
						OFFSET -0.164730 -0.452590 2.363150
						CHANNELS 3 Zrotation Yrotation Xrotation
						End Site
						{
							OFFSET 0.000000 0.000000 0.000000
						}
					}
				}
			}
		}
	}
	JOINT LowerBack
	{
		OFFSET 0.000000 0.000000 0.000000
		CHANNELS 3 Zrotation Yrotation Xrotation
		JOINT Spine
		{
			OFFSET 0.028270 2.035590 -0.193380
			CHANNELS 3 Zrotation Yrotation Xrotation
			JOINT Spine1
			{
				OFFSET 0.056720 2.048850 -0.042750
				CHANNELS 3 Zrotation Yrotation Xrotation
				JOINT Neck
				{
					OFFSET 0.000000 0.000000 0.000000
					CHANNELS 3 Zrotation Yrotation Xrotation
					JOINT Neck1
					{
						OFFSET -0.054170 1.746240 0.172020
						CHANNELS 3 Zrotation Yrotation Xrotation
						JOINT Head
						{
							OFFSET 0.104070 1.761360 -0.123970
							CHANNELS 3 Zrotation Yrotation Xrotation
							End Site
							{
								OFFSET 0.000000 0.000000 0.000000
							}
						}
					}
				}
				JOINT LeftShoulder
				{
					OFFSET 0.000000 0.000000 0.000000
					CHANNELS 3 Zrotation Yrotation Xrotation
					JOINT LeftArm
					{
						OFFSET 3.362410 1.200890 -0.311210
						CHANNELS 3 Zrotation Yrotation Xrotation
						JOINT LeftForeArm
						{
							OFFSET 4.983000 -0.000000 -0.000000
							CHANNELS 3 Zrotation Yrotation Xrotation
							JOINT LeftHand
							{
								OFFSET 3.483560 -0.000000 -0.000000
								CHANNELS 3 Zrotation Yrotation Xrotation
								JOINT LeftFingerBase
								{
									OFFSET 0.000000 0.000000 0.000000
									CHANNELS 3 Zrotation Yrotation Xrotation
									JOINT LeftHandIndex1
									{
										OFFSET 0.715260 -0.000000 -0.000000
										CHANNELS 3 Zrotation Yrotation Xrotation
										End Site
										{
											OFFSET 0.000000 0.000000 0.000000
										}
									}
								}
								JOINT LThumb
								{
									OFFSET 0.000000 0.000000 0.000000
									CHANNELS 3 Zrotation Yrotation Xrotation
									End Site
									{
										OFFSET 0.000000 0.000000 0.000000
									}
								}
							}
						}
					}
				}
				JOINT RightShoulder
				{
					OFFSET 0.000000 0.000000 0.000000
					CHANNELS 3 Zrotation Yrotation Xrotation
					JOINT RightArm
					{
						OFFSET -3.136600 1.374050 -0.404650
						CHANNELS 3 Zrotation Yrotation Xrotation
						JOINT RightForeArm
						{
							OFFSET -5.241900 -0.000000 -0.000000
							CHANNELS 3 Zrotation Yrotation Xrotation
							JOINT RightHand
							{
								OFFSET -3.444170 -0.000000 -0.000000
								CHANNELS 3 Zrotation Yrotation Xrotation
								JOINT RightFingerBase
								{
									OFFSET 0.000000 0.000000 0.000000
									CHANNELS 3 Zrotation Yrotation Xrotation
									JOINT RightHandIndex1
									{
										OFFSET -0.622530 -0.000000 -0.000000
										CHANNELS 3 Zrotation Yrotation Xrotation
										End Site
										{
											OFFSET 0.000000 0.000000 0.000000
										}
									}
								}
								JOINT RThumb
								{
									OFFSET 0.000000 0.000000 0.000000
									CHANNELS 3 Zrotation Yrotation Xrotation
									End Site
									{
										OFFSET 0.000000 0.000000 0.000000
									}
								}
							}
						}
					}
				}
			}
		}
	}
}
MOTION
Frames: 4
Frame Time: 0.008333
10.410198 14.596801 10.913946 179.614571 -2.517427 155.306931 2.315390 -1.477093 -1.811775 12.096984 11.111486 -32.195187 20.452089 23.087740 69.743776 6.042869 -1.057243 33.292663 0.558800 -4.788000 -13.304900 -1.755650 4.173180 -4.027755 -12.332013 -5.008672 -31.309630 -20.341146 -23.257645 63.189595 -3.048115 -7.346319 41.190284 -1.251100 7.091300 -19.986100 -2.214282 -2.989689 29.858785 -2.005532 8.190264 21.601334 -1.305517 -5.399400 -3.842082 -4.369743 -3.473391 -16.409415 4.152988 -4.250934 8.197444 1.126800 -2.003100 5.706200 4.559680 -23.626247 -2.032812 -37.449931 -48.673415 33.951719 36.353520 -18.239019 -26.680612 -6.494371 -1.466358 26.279268 19.104116 14.798592 8.204700 -7.125000 0.000000 0.000000 -3.871900 50.241300 -0.500900 -3.138366 20.310214 1.754390 38.102203 54.625136 28.078426 -35.314454 16.942591 -28.337087 -2.922901 -6.170575 27.473737 -21.831762 18.469374 -10.066400 7.125000 0.000000 0.000000 4.384400 -2.780600 4.179000 
10.407707 14.587254 10.922386 179.763580 -2.555509 155.245757 2.403856 -1.443067 -1.883068 12.207163 11.204603 -32.219785 20.674433 23.133897 69.773833 5.422511 0.281503 32.907946 1.006300 -6.383200 -17.900500 -1.738172 4.188665 -3.973634 -12.214739 -4.975456 -31.315967 -20.348175 -23.219942 63.227797 -2.975616 -7.511301 41.172799 -1.162900 6.845900 -19.259800 -1.800240 -3.120038 29.880972 -2.258723 8.040290 21.656638 -1.340196 -5.484315 -3.834104 -4.348438 -3.494744 -16.489024 4.162145 -4.282376 8.212285 1.137600 -2.017700 5.736800 4.582561 -23.785500 -2.055910 -37.100975 -48.669980 34.120164 36.138483 -18.019642 -26.379935 -6.464682 -1.464987 25.976798 18.966319 14.636340 8.068700 -7.125000 0.000000 0.000000 -3.965200 50.006400 -0.490000 -3.065407 20.379304 1.751436 37.717305 54.501343 28.002583 -35.246793 16.841558 -28.216608 -2.846735 -6.201289 27.422243 -21.998927 18.130660 -10.056200 7.125000 0.000000 0.000000 4.197600 -3.100900 3.975200 
10.404663 14.584072 10.932624 179.859637 -2.570436 155.058983 2.416241 -1.373632 -1.881787 12.307529 11.214091 -32.070277 20.557171 23.198916 69.694885 5.911389 -0.750062 33.269954 0.923500 -6.122300 -17.139800 -1.684317 4.192450 -3.902650 -12.162185 -4.927066 -31.199365 -20.347673 -23.190062 63.222211 -2.943547 -7.598539 41.174871 -1.141500 6.784600 -19.078900 -1.442103 -3.325282 30.093236 -2.633347 8.013979 21.700884 -1.311899 -5.679014 -3.954097 -4.343387 -3.581689 -16.354525 4.191754 -4.413537 8.172336 1.201300 -2.080500 5.643600 4.561971 -23.982376 -2.057872 -36.603658 -48.511796 34.352915 35.848018 -17.809148 -26.022179 -6.638392 -1.595996 25.496153 18.893043 14.965645 8.283000 -7.125000 0.000000 0.000000 -4.016300 50.507200 -0.545900 -2.966889 20.380982 1.775611 37.650223 54.386972 27.968922 -35.267031 16.893353 -28.234527 -2.706083 -6.209479 27.436209 -22.264734 17.802756 -10.097200 7.125000 0.000000 0.000000 3.914300 -3.441900 3.681000 
10.405632 14.577570 10.941202 179.742996 -2.586054 154.864518 2.388462 -1.331763 -1.809849 12.266792 11.204584 -31.978393 20.589667 23.196350 69.703400 5.758674 -0.403092 33.084777 0.891900 -6.019400 -16.840700 -1.641369 4.180503 -3.899963 -12.331648 -4.728805 -31.028141 -20.375816 -23.232530 63.237265 -2.955931 -7.586678 41.211676 -1.145000 6.794800 -19.109000 -1.595822 -3.326125 30.358337 -2.624658 8.192805 21.664330 -1.327197 -5.741102 -4.060555 -4.334074 -3.678623 -16.224710 4.218242 -4.559923 8.129357 1.271300 -2.149700 5.555700 4.475911 -24.126190 -2.022128 -36.200701 -48.382458 34.534783 35.571059 -17.628016 -25.621098 -6.748841 -1.538962 25.247618 18.993844 15.041480 8.387800 -7.125000 0.000000 0.000000 -3.785200 50.581100 -0.521300 -2.966882 20.437949 1.795432 37.503589 54.340402 27.959880 -35.164494 16.824895 -28.124356 -2.675282 -6.314650 27.291754 -22.479414 17.885333 -10.294000 7.125000 0.000000 0.000000 3.761500 -3.218300 3.552200 
